<?xml version="1.0" encoding="utf-8"?>
<!-- Generator: Adobe Illustrator 17.1.0, SVG Export Plug-In . SVG Version: 6.00 Build 0)  -->
<!DOCTYPE svg PUBLIC "-//W3C//DTD SVG 1.1//EN" "http://www.w3.org/Graphics/SVG/1.1/DTD/svg11.dtd">
<svg version="1.1" id="Layer_1" xmlns="http://www.w3.org/2000/svg" xmlns:xlink="http://www.w3.org/1999/xlink" x="0px" y="0px"
	 width="317.9px" height="174px" viewBox="0 0 317.9 174" enable-background="new 0 0 317.9 174" xml:space="preserve">
<g>
	<g>
		<path d="M63.9,138.1h4.3v-4.5h2.1c3.9,0,6.7-1.9,6.7-5.6v0c0-3.5-2.5-5.5-6.5-5.5h-6.7V138.1z M68.2,130.3v-4.1h2
			c1.6,0,2.5,0.7,2.5,2v0c0,1.2-0.9,2-2.5,2H68.2z M86.7,138.5c4.8,0,8.4-3.6,8.4-8.1v0c0-4.5-3.6-8.1-8.4-8.1
			c-4.8,0-8.4,3.6-8.4,8.1v0C78.3,134.9,81.9,138.5,86.7,138.5 M86.7,134.6c-2.4,0-4-2-4-4.2v0c0-2.3,1.6-4.2,3.9-4.2
			c2.4,0,4,2,4,4.2v0C90.7,132.7,89.1,134.6,86.7,134.6 M103.4,138.4c3.8,0,6.3-1.9,6.3-5.1v0c0-2.9-2.2-4.1-5.8-4.9
			c-2.2-0.5-2.7-0.8-2.7-1.5v0c0-0.6,0.5-1,1.6-1c1.4,0,2.9,0.5,4.4,1.5l2.2-3.1c-1.7-1.4-3.8-2.1-6.4-2.1c-3.7,0-6,2.1-6,5v0
			c0,3.2,2.6,4.1,5.9,4.9c2.1,0.5,2.6,0.8,2.6,1.5v0c0,0.7-0.6,1.1-1.8,1.1c-1.8,0-3.5-0.6-5-1.9l-2.4,2.9
			C98,137.5,100.6,138.4,103.4,138.4 M117.7,138.4c3.8,0,6.3-1.9,6.3-5.1v0c0-2.9-2.2-4.1-5.8-4.9c-2.2-0.5-2.7-0.8-2.7-1.5v0
			c0-0.6,0.5-1,1.6-1c1.4,0,2.9,0.5,4.4,1.5l2.2-3.1c-1.7-1.4-3.8-2.1-6.4-2.1c-3.7,0-6,2.1-6,5v0c0,3.2,2.6,4.1,5.9,4.9
			c2.1,0.5,2.6,0.8,2.6,1.5v0c0,0.7-0.6,1.1-1.8,1.1c-1.8,0-3.5-0.6-5.1-1.9l-2.4,2.9C112.3,137.5,114.9,138.4,117.7,138.4
			 M126.2,138.1h4.3v-15.6h-4.3V138.1z M133.3,138.1h8c3.7,0,5.9-1.6,5.9-4.3v0c0-2.1-1.2-3.2-3.1-3.8c1.4-0.6,2.4-1.7,2.4-3.5v0
			c0-1.1-0.4-1.9-1-2.5c-0.9-0.9-2.3-1.4-4.2-1.4h-8V138.1z M137.6,128.8V126h2.8c1.3,0,2,0.5,2,1.3v0c0,0.9-0.7,1.4-2,1.4H137.6z
			 M137.6,134.7v-2.9h3.3c1.4,0,2.1,0.6,2.1,1.4v0c0,0.9-0.8,1.4-2.1,1.4H137.6z M149.3,138.1h11.9v-3.8h-7.5v-11.8h-4.3V138.1z
			 M163,138.1h12.6v-3.7h-8.4V132h7.5v-3.4h-7.5v-2.4h8.3v-3.7H163V138.1z"/>
	</g>
	<g>
		<path d="M193.8,122.5h1.1l7.2,15.7h-1.3l-2-4.4h-9.2l-2,4.4h-1.2L193.8,122.5z M198.5,132.8l-4.1-9l-4.1,9H198.5z"/>
		<path d="M206.1,130.5L206.1,130.5c0-4.2,3-8.1,7.7-8.1c2.5,0,4.1,0.8,5.7,2l-0.8,0.9c-1.2-1.1-2.6-1.9-5-1.9
			c-3.8,0-6.4,3.2-6.4,6.9v0c0,4,2.5,7,6.7,7c2,0,3.8-0.8,5-1.8v-4.5h-5.2v-1.1h6.3v6c-1.4,1.2-3.6,2.3-6.1,2.3
			C209,138.5,206.1,134.8,206.1,130.5"/>
		<polygon points="225.6,122.6 236.6,122.6 236.6,123.7 226.7,123.7 226.7,129.8 235.6,129.8 235.6,130.9 226.7,130.9 226.7,137.1 
			236.7,137.1 236.7,138.2 225.6,138.2 		"/>
		<polygon points="241.8,122.6 242.9,122.6 253.6,136.2 253.6,122.6 254.7,122.6 254.7,138.2 253.8,138.2 242.9,124.4 242.9,138.2 
			241.8,138.2 		"/>
		<path d="M260,130.5L260,130.5c0-4.4,3.3-8.1,7.8-8.1c2.8,0,4.4,1,6,2.5l-0.8,0.8c-1.4-1.3-2.9-2.3-5.2-2.3c-3.7,0-6.5,3-6.5,6.9v0
			c0,3.9,2.9,7,6.6,7c2.2,0,3.8-0.9,5.4-2.4l0.8,0.8c-1.6,1.6-3.4,2.7-6.2,2.7C263.3,138.5,260,134.9,260,130.5"/>
		<polygon points="283.4,132 276.8,122.6 278.2,122.6 284,131 289.9,122.6 291.3,122.6 284.6,132 284.6,138.2 283.4,138.2 		"/>
	</g>
	<path d="M46.1,122.5h1.1l7.2,15.7h-1.3l-2-4.4h-9.2l-2,4.4h-1.2L46.1,122.5z M50.7,132.8l-4.1-9l-4.1,9H50.7z"/>
</g>
<g>
	<polygon fill-rule="evenodd" clip-rule="evenodd" fill="#F78411" points="66,60.6 96.2,60.6 96.2,53 58.4,53 58.4,90.8 96.2,90.8 
		96.2,68.2 73.5,68.2 73.5,75.7 88.6,75.7 88.6,83.3 66,83.3 	"/>
	<path fill-rule="evenodd" clip-rule="evenodd" fill="#F78411" d="M146,53v37.8h7.6V75.7h22.7v15.1h7.6V53H146z M176.3,68.2h-22.7
		v-7.6h22.7V68.2z"/>
	<path fill-rule="evenodd" clip-rule="evenodd" fill="#F78411" d="M102.2,53v37.8h7.6V75.7h15.1l7.6,15.1h7.6l-7.6-15.1h7.6V53
		H102.2z M132.4,68.2h-7.6h-7.6h-7.6v-7.6h7.6h7.6h7.6V68.2z"/>
	<polygon fill-rule="evenodd" clip-rule="evenodd" fill="#F78411" points="271.4,60.6 271.4,53 233.7,53 233.7,90.8 271.4,90.8 
		271.4,83.3 241.2,83.3 241.2,75.7 263.9,75.7 263.9,68.2 241.2,68.2 241.2,60.6 	"/>
	<path fill-rule="evenodd" clip-rule="evenodd" fill="#F78411" d="M189.8,53v37.8h7.6V75.7h30.2V53H189.8z M220.1,68.2h-7.6H205
		h-7.6v-7.6h7.6h7.6h7.6V68.2z"/>
</g>
<g>
	<path fill="#F78411" d="M291.1,110.5H38.7V33.4h252.4V110.5z M46.3,102.9h237.2V41H46.3V102.9z"/>
</g>
</svg>
