<?xml version="1.0" encoding="utf-8"?>
<!-- Generator: Adobe Illustrator 17.1.0, SVG Export Plug-In . SVG Version: 6.00 Build 0)  -->
<!DOCTYPE svg PUBLIC "-//W3C//DTD SVG 1.1//EN" "http://www.w3.org/Graphics/SVG/1.1/DTD/svg11.dtd">
<svg version="1.1" id="Layer_1" xmlns="http://www.w3.org/2000/svg" xmlns:xlink="http://www.w3.org/1999/xlink" x="0px" y="0px"
	 width="6px" height="4.8px" viewBox="0 0 6 4.8" enable-background="new 0 0 6 4.8" xml:space="preserve">
<g>
	<defs>
		<rect id="SVGID_1_" y="0" width="6" height="4.8"/>
	</defs>
	<clipPath id="SVGID_2_">
		<use xlink:href="#SVGID_1_"  overflow="visible"/>
	</clipPath>
	<path clip-path="url(#SVGID_2_)" fill-rule="evenodd" clip-rule="evenodd" fill="#30383B" d="M3,4.7c0.2-0.1,0.3-0.3,0.5-0.4
		c1-0.7,2.3-1.6,2.3-2.6c0-0.6-0.3-1-0.6-1.3C5.1,0.3,4.8,0.2,4.6,0.2c-0.2,0-0.4,0-0.7,0.1C3.6,0.4,3.2,0.7,3.1,1.3
		c0,0,0,0.1-0.1,0.1c0,0,0,0-0.1-0.1C2.8,0.7,2.5,0.4,2.1,0.2C1.9,0.2,1.6,0.1,1.4,0.2C1.2,0.2,1,0.3,0.8,0.4
		C0.4,0.6,0.1,1.1,0.1,1.7c0,1,1.3,1.9,2.3,2.6C2.7,4.4,2.9,4.5,3,4.7 M3.6,4.4C3.4,4.5,3.2,4.7,3.1,4.8c0,0-0.1,0-0.1,0
		C2.8,4.7,2.6,4.5,2.4,4.4C1.4,3.7,0,2.7,0,1.7C0,1,0.3,0.5,0.7,0.3C0.9,0.1,1.1,0,1.4,0c0.2,0,0.5,0,0.7,0.1C2.5,0.2,2.8,0.5,3,1
		c0.2-0.5,0.5-0.8,0.9-0.9C4.1,0,4.4,0,4.6,0c0.2,0,0.5,0.1,0.7,0.3C5.7,0.5,6,1,6,1.7C6,2.7,4.7,3.7,3.6,4.4"/>
</g>
</svg>
