<?xml version="1.0" encoding="utf-8"?>
<!-- Generator: Adobe Illustrator 17.1.0, SVG Export Plug-In . SVG Version: 6.00 Build 0)  -->
<!DOCTYPE svg PUBLIC "-//W3C//DTD SVG 1.1//EN" "http://www.w3.org/Graphics/SVG/1.1/DTD/svg11.dtd">
<svg version="1.1" id="Layer_1" xmlns="http://www.w3.org/2000/svg" xmlns:xlink="http://www.w3.org/1999/xlink" x="0px" y="0px"
	 width="6.1px" height="5.7px" viewBox="0 0 6.1 5.7" enable-background="new 0 0 6.1 5.7" xml:space="preserve">
<g>
	<defs>
		<rect id="SVGID_1_" y="0" width="6.1" height="5.7"/>
	</defs>
	<clipPath id="SVGID_2_">
		<use xlink:href="#SVGID_1_"  overflow="visible"/>
	</clipPath>
	<path clip-path="url(#SVGID_2_)" fill-rule="evenodd" clip-rule="evenodd" fill="#30383B" d="M1.6,4.5c0.1,0,0.2,0,0.3,0.1
		C2,4.7,2,4.8,2,4.9c0,0.1,0,0.2-0.1,0.3l0,0C1.8,5.3,1.7,5.4,1.6,5.4c-0.1,0-0.2,0-0.3-0.1C1.2,5.2,1.2,5.1,1.2,4.9
		c0-0.1,0-0.2,0.1-0.3C1.4,4.6,1.5,4.5,1.6,4.5 M2.9,1.9L2.9,1.9C2.9,1.8,2.8,1.8,2.9,1.9L0.4,1.8c-0.1,0-0.2,0-0.3,0.1
		C0,2,0,2.1,0,2.2v3c0,0.1,0,0.2,0.1,0.3c0.1,0.1,0.2,0.1,0.3,0.1h2.4c0,0,0.1,0,0.1-0.1V5.6h1.6c0.4,0,0.8-0.2,1.1-0.5
		C5.9,4.8,6.1,4.4,6.1,4V2.6c0-0.1,0-0.2-0.1-0.3l0,0v0C5.9,2.2,5.8,2.1,5.7,2.1H4.5l0.2-1.6c0-0.1,0-0.1,0-0.2c0-0.1,0-0.1-0.1-0.2
		c0,0-0.1-0.1-0.1-0.1C4.4,0,4.3,0,4.3,0H4.1C4,0,4,0,3.9,0.1S3.8,0.2,3.7,0.2L2.9,1.9z M3.9,0.3c0-0.1,0.1-0.1,0.1-0.1
		c0,0,0.1,0,0.1,0h0.1c0,0,0.1,0,0.1,0h0h0c0,0,0.1,0,0.1,0.1c0,0,0,0.1,0.1,0.1c0,0,0,0.1,0,0.1L4.3,2.2c0,0,0,0.1,0.1,0.1
		c0,0,0,0,0,0h1.3c0.1,0,0.2,0,0.2,0.1v0c0.1,0.1,0.1,0.1,0.1,0.2V4c0,0.4-0.2,0.8-0.4,1c-0.3,0.3-0.6,0.4-1,0.4H2.9V2.2L3.9,0.3z
		 M2.7,2H0.4C0.4,2,0.3,2,0.2,2C0.2,2.1,0.1,2.2,0.1,2.2v3c0,0.1,0,0.2,0.1,0.2c0.1,0.1,0.1,0.1,0.2,0.1h2.3V2z M1.8,4.7
		c0,0-0.1-0.1-0.2-0.1c-0.1,0-0.1,0-0.2,0.1c0,0-0.1,0.1-0.1,0.2c0,0.1,0,0.1,0.1,0.2c0,0,0.1,0.1,0.2,0.1c0.1,0,0.1,0,0.2-0.1l0,0
		c0,0,0.1-0.1,0.1-0.2C1.9,4.9,1.9,4.8,1.8,4.7"/>
</g>
</svg>
