<?xml version="1.0" encoding="utf-8"?>
<!-- Generator: Adobe Illustrator 17.1.0, SVG Export Plug-In . SVG Version: 6.00 Build 0)  -->
<!DOCTYPE svg PUBLIC "-//W3C//DTD SVG 1.1//EN" "http://www.w3.org/Graphics/SVG/1.1/DTD/svg11.dtd">
<svg version="1.1" id="Layer_1" xmlns="http://www.w3.org/2000/svg" xmlns:xlink="http://www.w3.org/1999/xlink" x="0px" y="0px"
	 width="410px" height="317px" viewBox="0 0 410 317" enable-background="new 0 0 410 317" xml:space="preserve">
<g>
	<path fill="#1C3F7B" d="M248.4,102.7c-0.2-15.7-8.5-29.5-29.6-29.5c-32.9,0.1-56.4,32.5-56.3,60c0.1,17.4,9.9,29.8,29.6,29.8
		C223.3,163,248.4,133,248.4,102.7 M193.4,158.6c-9.3,0-14-7.7-13.9-22.1c0.1-29.9,21.6-58.7,39.2-58.7c9.3,0,13.4,8.7,13.4,21.3
		C232.3,125.6,213.1,158.6,193.4,158.6"/>
	<path fill="#1C3F7B" d="M391.8,84.8c-2-6.8-10.6-13.1-24.9-11.7c-34.6,3.4-56.5,39.1-50.3,67.4c2,9.3,8.6,22.6,29.9,22.6
		c21.3,0,32.1-15.6,32.7-16.6c4.4-6.5,3.4-10.2-1.6-4.4c-4,4.8-15.9,17.1-28.8,15.5c-12.6-1.5-17.3-16.6-15.6-32.1
		C382.7,117.2,395.7,97.9,391.8,84.8 M349.7,86.3c4.4-4.9,10.5-8.5,15.2-9.2c18.1-2.5,18.3,35.5-31.3,44.1
		C336.6,103.3,344,92.5,349.7,86.3"/>
	<path fill="#1C3F7B" d="M79,24.9C44.2,25,32.6,45.3,32.5,50.6c0,1.6,0,2.7,0.9,1.8c1.2-1.1,3.3-5.3,7.6-9
		c10.1-8.7,35.1-18.2,63.5-8.1c28.4,10.1,43.6,39.5,33.1,73.3c-10.7,34.5-32.1,43.5-52.7,47.2c-20.5,3.7-43.7,1.8-43.7,1.8
		c0,0-0.1-0.1,0-0.1c4.7-5,14.3-26.3,25.1-57.4c11.4-32.9,21.3-45.3,31.4-53.9c3.4-2.9-6-1.2-9,0c-2.6,1-24.7,8.3-37.9,42.9
		c-13.3,35-22.1,56.7-26.4,64.4c-4.3,7.6-6.1,9.5,0.2,9.5c6.3,0,0,0,0,0c32.4,0,47.7,0.2,60.1-0.5c24.1-1.5,69.6-10.8,74.4-61.4
		C163.6,52,114.3,24.8,79,24.9"/>
	<path fill="#1C3F7B" d="M273.3,145.5c21.1-17.4,33-42.1,34.9-54.4c2-12.3-0.2-16.4,1.2-17c1.4-0.6,8.5,5.4,8.1,14.7
		c-0.2,4.1-2.4,18.8-21.6,42.3c-19.4,23.9-36.3,33.6-38.5,31.9c-2.2-1.7,1.6-23.1,0.9-48.8c-0.8-25.8-5.9-31.5-7.5-37.5
		c-0.4-1.6,1-1.3,1-1.3l0,0c0.4,0.1,14.8,2.7,19.9,16.8C277.2,107.2,274.4,135.7,273.3,145.5C273.2,145.5,273.2,145.5,273.3,145.5"
		/>
</g>
<g>
	<defs>
		<path id="SVGID_1_" d="M202.4,216.6c-23.8,14.4-39.8,21.2-56.9,20.7l-1.1-0.1c-0.2,0-0.8-0.2-0.9,0.1c-0.3,0.6,2.5,2.3,2.5,2.3
			c1.2,0.9,13.8,8.5,29.9,10.8c8.6,1.2,14.6,1.1,18.7,0.3c3.7-0.8,4-0.4,4.2,0c0.2,0.4,0.3,1.5-2.6,2.6c-4.2,1.7-8.1,2.4-12.8,3.1
			c-18.1,2.6-44.6-0.2-55.3-2.6c-2.6-0.6-4.5-1-5.3-1.2c-0.2,0-0.5-0.1-0.7,0c-0.2,0.1-0.3,0.2-0.2,0.4c0.1,0.4,1.2,1.1,1.4,1.2
			c106.9,70.8,131.6,5.2,138.7-7.7c7.1-12.8,10.5-15.7,15.5-17.2c0.8-0.3,1.6-0.4,1.6-0.9c0-0.3-0.7-0.7-0.7-0.7l-3.2-2.2
			c-11.4-8.9-22-2.9-31.5,7.4c-9.6,10.3-12,9.1-9.7,5.5c9.9-14.7-0.8-22.6-0.8-22.6c-3-2.7-7.7-4.4-13.2-4.4
			C214.4,211.5,208.3,213,202.4,216.6"/>
	</defs>
	<clipPath id="SVGID_2_">
		<use xlink:href="#SVGID_1_"  overflow="visible"/>
	</clipPath>
	
		<linearGradient id="SVGID_3_" gradientUnits="userSpaceOnUse" x1="-188.9983" y1="480.8802" x2="-187.998" y2="480.8802" gradientTransform="matrix(157.1048 0 0 -157.1048 29814.2578 75816.8125)">
		<stop  offset="0" style="stop-color:#AF8D41"/>
		<stop  offset="0.2699" style="stop-color:#D9C58A"/>
		<stop  offset="0.4908" style="stop-color:#FAE8B5"/>
		<stop  offset="0.7485" style="stop-color:#D9C58A"/>
		<stop  offset="1" style="stop-color:#AF8D41"/>
	</linearGradient>
	<rect x="121.7" y="211.5" clip-path="url(#SVGID_2_)" fill="url(#SVGID_3_)" width="157.2" height="113.5"/>
</g>
</svg>
