<?xml version="1.0" encoding="utf-8"?>
<!-- Generator: Adobe Illustrator 17.1.0, SVG Export Plug-In . SVG Version: 6.00 Build 0)  -->
<!DOCTYPE svg PUBLIC "-//W3C//DTD SVG 1.1//EN" "http://www.w3.org/Graphics/SVG/1.1/DTD/svg11.dtd">
<svg version="1.1" id="Layer_1" xmlns="http://www.w3.org/2000/svg" xmlns:xlink="http://www.w3.org/1999/xlink" x="0px" y="0px"
	 width="6.7px" height="4.4px" viewBox="0 0 6.7 4.4" enable-background="new 0 0 6.7 4.4" xml:space="preserve">
<g>
	<defs>
		<rect id="SVGID_1_" y="0" width="6.7" height="4.4"/>
	</defs>
	<clipPath id="SVGID_2_">
		<use xlink:href="#SVGID_1_"  overflow="visible"/>
	</clipPath>
	<path clip-path="url(#SVGID_2_)" fill-rule="evenodd" clip-rule="evenodd" fill="#30383B" d="M0.1,0.8l2,1.5l0,0l1,0.8
		c0.1,0,0.1,0.1,0.2,0.1c0.1,0,0.1,0,0.2-0.1l1-0.8l0,0l2-1.5V0.4c0-0.1,0-0.2-0.1-0.2C6.4,0.2,6.3,0.1,6.3,0.1H0.4
		c-0.1,0-0.2,0-0.2,0.1C0.2,0.3,0.1,0.4,0.1,0.4V0.8z M6.5,4c0,0.1,0,0.1-0.1,0.2C6.4,4.2,6.3,4.2,6.3,4.2H0.4c-0.1,0-0.2,0-0.2-0.1
		h0c0,0-0.1-0.1-0.1-0.2l2-1.5l1,0.7c0.1,0.1,0.2,0.1,0.3,0.1c0.1,0,0.2,0,0.3-0.1l1-0.7L6.5,4z M4.7,2.4L6.5,1v2.8L4.7,2.4z
		 M0.1,3.8V1L2,2.4L0.1,3.8z M0.4,0h5.8c0.1,0,0.2,0,0.3,0.1c0.1,0.1,0.1,0.2,0.1,0.3v3.5c0,0.1,0,0.2-0.1,0.3
		C6.5,4.3,6.4,4.4,6.3,4.4H0.4c-0.1,0-0.2,0-0.3-0.1l0,0C0,4.1,0,4,0,3.9V0.4c0-0.1,0-0.2,0.1-0.3C0.2,0,0.3,0,0.4,0"/>
</g>
</svg>
