<?xml version="1.0" encoding="utf-8"?>
<!-- Generator: Adobe Illustrator 17.1.0, SVG Export Plug-In . SVG Version: 6.00 Build 0)  -->
<!DOCTYPE svg PUBLIC "-//W3C//DTD SVG 1.1//EN" "http://www.w3.org/Graphics/SVG/1.1/DTD/svg11.dtd">
<svg version="1.1" id="Layer_1" xmlns="http://www.w3.org/2000/svg" xmlns:xlink="http://www.w3.org/1999/xlink" x="0px" y="0px"
	 width="2.5px" height="6.8px" viewBox="0 0 2.5 6.8" enable-background="new 0 0 2.5 6.8" xml:space="preserve">
<g>
	<defs>
		<rect id="SVGID_1_" y="0" width="3" height="6.8"/>
	</defs>
	<clipPath id="SVGID_2_">
		<use xlink:href="#SVGID_1_"  overflow="visible"/>
	</clipPath>
	<path clip-path="url(#SVGID_2_)" fill-rule="evenodd" clip-rule="evenodd" fill="#30383B" d="M0.6,5V0.1H0.4c-0.1,0-0.2,0-0.2,0.1
		C0.2,0.3,0.1,0.4,0.1,0.4v4.4L0.6,5z M0.8,0.1V5l0.8-0.3l0,0V0.1H0.8z M1.7,0.1v4.6l0,0l0.5,0.1l0-4.4c0-0.1,0-0.2-0.1-0.2
		C2,0.2,1.9,0.1,1.9,0.1H1.7z M2.3,4.9C2.3,4.9,2.3,4.9,2.3,4.9C2.3,5,2.3,5,2.3,4.9L1.4,6.7c0,0-0.1,0.1-0.1,0.1c0,0-0.1,0-0.1,0
		c0,0-0.1,0-0.1,0c0,0-0.1-0.1-0.1-0.1L0,5c0,0,0,0,0,0V0.4c0-0.1,0-0.2,0.1-0.3C0.2,0,0.3,0,0.4,0h0.3h0.9h0.3v0C2,0,2.1,0,2.2,0.1
		c0.1,0.1,0.1,0.2,0.1,0.3h0L2.3,4.9z M2.1,5L1.6,5.9L1.3,5.7c0,0-0.1,0-0.1,0L0.9,6L0.7,5.9L0.2,5.1l0.4,0.1c0,0,0.1,0,0.1,0
		c0,0,0.1,0,0.1,0l0.8-0.3c0,0,0,0,0,0c0,0,0,0,0,0L2.1,5z M0.8,6.1l0.3,0.5c0,0,0,0,0,0c0,0,0,0,0.1,0c0,0,0,0,0.1,0c0,0,0,0,0,0
		L1.6,6L1.2,5.9L1,6.1c0,0,0,0-0.1,0L0.8,6.1z"/>
</g>
</svg>
