<?xml version="1.0" encoding="utf-8"?>
<!-- Generator: Adobe Illustrator 17.1.0, SVG Export Plug-In . SVG Version: 6.00 Build 0)  -->
<!DOCTYPE svg PUBLIC "-//W3C//DTD SVG 1.1//EN" "http://www.w3.org/Graphics/SVG/1.1/DTD/svg11.dtd">
<svg version="1.1" id="Layer_1" xmlns="http://www.w3.org/2000/svg" xmlns:xlink="http://www.w3.org/1999/xlink" x="0px" y="0px"
	 width="85.5px" height="112px" viewBox="0 0 85.5 112" enable-background="new 0 0 85.5 112" xml:space="preserve">
<g opacity="0.9">
	<g>
		<path fill="#FFFFFF" d="M31.5,48.1c0-1.3,3-1.9,3-3.5c0-0.3-0.1-0.7-0.3-1c1,0.6,1.8,1.5,1.8,2.3c0,1.4-1.4,2-1.4,2.8
			c0,1,1.5,1.1,1.5,2.4c0,1-1.4,2.2-1.4,3.4c0,1,0.7,1.8,1.8,2c-0.4,0.1-0.7,0.1-1,0.1c-2,0-4-1.6-4-3.6c0-1,0.4-1.8,1-2.4
			c0.6,0.5,1.1,0.8,1.4,0.8c0.3,0,0.5-0.2,0.5-0.4C34.4,50.3,31.5,49.7,31.5,48.1 M37.8,58c-0.7,0.3-0.9,0.3-0.9,0.9
			c0,0.3-0.1,0.6-0.1,0.8c0,0.2,0,0.4,0.3,0.4c0.7,0,1.8-1.2,1.8-2.2c0-0.3-0.2-0.4-0.3-0.4C38.4,57.5,38.2,57.8,37.8,58 M37.7,56.6
			c0-0.9-1.8-0.9-1.8-2.2c0-0.3,0.2-0.9,0.6-1.5c0.2,1,0.6,1.5,1.5,1.9c1.7,0.6,2,1.6,2,2.7c0,1.8-1.2,4-4.4,4
			c-2.5,0-4.4-2.3-4.4-4.2c0-0.5,0.1-1.1,0.5-1.1c0.3,0,0.4,0.2,0.6,0.5c0.9,0.9,1.8,1.1,3.2,1.1C36.8,57.6,37.7,57.1,37.7,56.6
			 M27.9,59c1.6,0.4,2.3,1.2,2.5,2.2c0.2,1,0.4,1.7,0.7,2.1c0.5,0.5,1.5,1,2.3,1c0.7,0,1.3-0.2,1.3-0.9c0-0.7-1-2.3-2.4-2.3
			c-0.1,0-0.3,0-0.5,0c-0.2,0-0.4,0-0.6-0.2c-0.3-0.3-0.4-1.7-1-2.6c-0.6-1-1.3-1.3-2.3-1.3c-0.7,0-1.4,0.4-1.4,0.9
			C26.4,58.4,26.6,58.7,27.9,59 M33.3,63.4c-0.6,0-1.5-0.6-1.5-1c0-0.3,0.3-0.5,0.5-0.5c0.5,0,1.4,0.6,1.4,1.1
			C33.7,63.2,33.6,63.4,33.3,63.4 M38.6,62.6c0,0.2-0.1,0.4-0.2,0.6c-0.2-0.4-0.8-0.6-1.1-0.6c-2,0-1.3,2.9-3.4,2.9
			c-0.9,0-1-0.1-1.3-0.1c-0.1,0-0.2,0.1-0.2,0.2c0,0.5,0.7,1.8,2.7,1.8c2,0,4-1.2,4-2.8c0-0.3-0.1-0.5-0.2-0.8
			c0.1-0.1,0.3-0.2,0.4-0.2c0.3,0,0.5,0.4,0.8,0.4c0.3,0,0.6-0.2,0.6-0.5c0-0.3-0.1-0.4-0.4-0.6c0.2-0.1,0.3-0.3,0.3-0.5
			c0-0.3-0.2-0.6-0.6-0.6c-0.2,0-0.3,0.1-0.4,0.2c0-0.4-0.2-0.7-0.6-0.7c-0.3,0-0.5,0.2-0.5,0.5C38.4,62,38.6,62.3,38.6,62.6
			 M51.8,28.7c-1.4,0-2.3-0.7-2.3-1c0-0.2,0.1-0.3,0.3-0.3c0.4,0,1.4,0.7,1.7,0.7c0.1,0,0.1,0,0.1-0.2c0-0.4-0.3-0.9-0.3-1.2
			c0-0.1,0.1-0.1,0.2-0.1c0.5,0,1.3,0.2,1.7,0.2c0.1,0,0.2-0.1,0.2-0.2c0-0.4-1.3-1.3-1.3-1.5c0-0.2,1.6-0.6,1.6-1
			c0-0.4-2.2-0.1-2.2-0.5c0-0.3,0.4-0.7,0.4-1c0-0.1-0.1-0.1-0.2-0.1c-0.2,0-1.1,0.4-1.5,0.4c-0.2,0-0.4,0-0.4-0.3
			c0-0.4,0.8-0.9,2-0.9c1.9,0,3.1,1.3,3.1,3.6C54.9,28,52.9,28.7,51.8,28.7 M48,25c0-0.2-0.8-0.6-0.8-0.9l0.1-0.1
			c0.2,0,0.6,0.1,0.9,0.1c0.3,0,0.3-1.1,0.5-1.1c0.1,0,0.4,1,0.6,1c0.3,0,0.7-0.3,0.9-0.3l0.1,0.1c0,0.1-0.5,0.7-0.5,0.8
			c0,0.2,1.1,0.4,1.1,0.5c0,0.2-1.1,0.2-1.1,0.4c0,0.1,0.4,0.7,0.4,0.9l-0.1,0.1c-0.2,0-0.8-0.3-0.9-0.3c-0.2,0-0.6,0.8-0.7,0.8
			c-0.1,0-0.1-0.1-0.1-0.2l0-0.8c0-0.1,0-0.2-0.1-0.2c-0.2,0-0.7,0-0.8,0c-0.1,0-0.1,0-0.1-0.1C47.3,25.7,48,25.2,48,25 M62.1,40
			c0-0.4-1-0.5-1.1-1.6c0-0.2-0.1-0.5-0.3-0.5c-0.4,0-0.1,1.1-0.5,1.1c-0.9,0-1.2-1.8-1.5-1.8c-0.1,0-0.2,0.1-0.2,0.3
			c0,0.2,0,0.4,0,0.6c0,0.3-0.1,0.4-0.3,0.4c-0.5,0-1-1.2-1.4-1.2c-0.1,0-0.2,0.1-0.2,0.2c0,0.2,0.4,0.7,0.4,0.9
			c0,0.5-1.3,0.2-1.3,0.6c0,0.2,0.2,0.2,0.4,0.2c0.4,0,1.1-0.2,1.4-0.2c0.2,0,0.5,0,0.5,0.3c0,0.3-0.7,0.6-0.7,0.9
			c0,0.1,0.1,0.2,0.2,0.2c0.5,0,1.5-0.9,2.1-0.9c0.1,0,0.4,0.1,0.4,0.2c0,0.3-0.7,0.7-0.7,1.1c0,0.1,0.1,0.2,0.2,0.2
			c0.4,0,0.8-0.9,1.5-0.9c0.3,0,0.6,0.1,0.8,0.1C62,40.1,62.1,40,62.1,40 M63.9,24.2c0,1.7-1.3,3.1-3.6,3.4c0.3,0,0.5,0,0.7,0
			c2.7,0,3.7-1.2,3.7-2.2C64.7,24.9,64.4,24.4,63.9,24.2 M60.6,26.2c0-1.4-3.3-1.7-3.3-2.1c0-0.3,1.9-0.7,2.8-0.7
			c-1.5-1.9-3.6-1.7-3.6-2c0-0.2,1.6-0.6,3-0.6c1.2,0,2.3,0.3,2.3,1.2c0,0.5-0.4,1-0.4,1.8c0,0.4,0.2,0.8,0.8,0.8
			c0.6,0,0.7-0.6,0.7-1.3c0-0.6-0.1-1-0.1-1.3c0-0.8,0.6-1.4,1.4-1.4c0.7,0,0.8,0.3,1.8,0.3c-0.5,0.3-0.7,0.9-0.7,1.2
			c0,0.8,0.5,1.4,0.5,3.1c0,3.1-2.9,4.2-6.4,4.2c-1,0-2-0.1-3-0.2c-0.2,0-0.2-0.1-0.2-0.2c0-0.3,1.4-0.4,1.4-1.6
			c0-0.5-0.2-1-0.2-1.1c0-0.1,0.1-0.2,0.2-0.2c0.3,0,0.9,1.1,2,1.1C59.9,27.2,60.6,27.1,60.6,26.2 M32.3,27.8c0,0.7,2.4,4,2.9,4
			c0.4,0,0.7-0.7,0.7-1.3c0-0.2,0-0.3-0.1-0.4c-0.4-0.5-2.8-2.4-3.4-2.4L32.3,27.8z M46,33.5c0.5,0.5,1,0.7,1.5,0.7
			c0.2,0,0.5-0.1,0.6-0.1c0.2,0,0.3,0.1,0.3,0.2c0,0.2-0.2,0.6-0.4,0.8c0.2,0.1,0.5,0.1,0.8,0.1c1.1,0,2.4-0.7,2.4-2.5
			c0.2,0.3,0.4,1,0.4,1.3c0,2.1-1.6,3-3,3c-0.9,0-1.4-0.3-1.5-0.3c-0.4,0-0.4,0.7-0.6,0.7c-0.5-0.1-0.9-1.1-0.9-2.1
			C45.4,34.7,45.6,34,46,33.5 M48.9,32.1c-0.2-0.3-0.7-0.4-1-0.4c-0.9,0-1.5,0.6-1.6,1.2c-0.1-0.2-0.1-0.4-0.1-0.7
			c0-0.9,0.6-1.9,2-1.9c1.3,0,1.7,0.7,1.9,0.7c0.2,0,0.4-0.2,0.5-0.2c0.2,0,0.2,0.3,0.2,0.6c0,0.8-0.4,2.1-1.2,2.6
			c-0.2-0.3-0.5-0.7-1-0.9c-0.1-0.1-0.2-0.2-0.2-0.3C48.5,32.5,48.7,32.2,48.9,32.1 M63.4,52.1c1,0,1.8,1.3,1.8,2.8
			c0,1.6-0.7,3.3-2.1,4.5c0-2.6-3.3-1.8-3.3-3.7c0-0.8,0.6-1.4,1.3-1.4c0.6,0,1.1,0.2,1.5,0.5c-0.4-0.3-0.5-0.8-0.5-1.3
			C62.1,52.8,62.6,52.1,63.4,52.1 M18,25.8c0,0.4-1.5,1.7-2,1.7c-0.2,0-0.3-0.2-0.3-0.5c0-0.4,0.2-0.9,0.4-1.1
			c0.3-0.2,0.8-0.4,1.3-0.4C17.6,25.6,18,25.6,18,25.8 M30.5,38c-0.8,0-0.9,1-0.9,3.1c-0.6-1.3-1.7-2.8-2.9-2.8
			c-0.8,0-1.1,0.5-1.1,1.5c0,0.2,0,0.5,0.1,0.7c0.1-0.3,0.4-0.5,0.8-0.5c0.8,0,1.9,0.6,2.5,1.5c-0.8-0.1-1.5-0.3-2.1-0.3
			c-0.4,0-0.7,0-1,0.2c-0.6,0.3-1.3,1.1-1.3,2.4c0,0.2,0,0.4,0.1,0.6c0.7-1.5,2.5-2.2,3.7-2.2c0.2,0,0.4,0,0.5,0
			c-0.6,0.5-0.7,1.5-0.8,2.2c0,0.3-0.1,0.3-0.4,0.3c0,0.6,0.5,1.6,0.5,2.1c0,0.2-0.1,0.3-0.2,0.4c0,0.9,0.9,1.5,0.9,2
			c0,0.1,0,0.3-0.1,0.3c0.1,0.4,1,1,1.1,1.2c0.2,0.4,0.3,0.5,0.4,0.5c0.3,0,0.9-0.4,0.9-0.7c0-0.1-0.1-0.3-0.2-0.3
			c-0.4-0.3-0.6-0.9-0.7-1.3c-0.1,0-0.3-0.1-0.4-0.3c-0.1-0.3-0.1-1.2-0.3-1.6c-0.3-0.1-0.4-0.2-0.4-0.7c0-0.3,0.2-1.3,0.2-1.6
			c-0.1,0-0.3-0.1-0.3-0.3c0-0.6,0.6-1.1,0.8-1.9c1.1,0.8,1.4,1.7,1.4,2.4c0,0.4-0.1,0.8-0.1,1.1c0.8-0.4,2.1-1,2.1-2.3
			c0-0.7-0.3-1.5-2.5-1.8c0.7-0.3,1.5-0.4,2.3-0.4c1.3,0,2,0.4,2.1,1.3c0.3-0.4,0.5-0.8,0.5-1.3c0-1-0.8-1.6-1.8-1.6
			c-1.2,0-2.3,0.6-3.4,1.4c0.5-1.1,0.9-1.7,1.5-1.7c0.1,0,0.2,0,0.3,0C31.8,38.8,30.9,38,30.5,38 M28.3,36.5c0.7,0,1.4-3.6,1.4-4.2
			c0-0.2-0.1-0.3-0.2-0.3c-0.6,0-1.4,3.4-1.4,4.2C28.1,36.3,28.1,36.5,28.3,36.5 M33.1,37.6c0.5,0,1-1.9,1-3.1c0-0.3,0-0.5-0.2-0.5
			c-0.4,0-1.1,1.9-1.1,3C32.9,37.4,33,37.6,33.1,37.6 M29.9,35.8c0.2,0,0.5-0.2,1-0.8c0-0.3,0-0.5,0-0.8c0-0.4-0.2-0.8-0.4-0.8
			c-0.6,0-0.9,1.6-0.9,2C29.7,35.6,29.8,35.8,29.9,35.8 M32.6,35c0-0.3-0.1-0.4-0.2-0.4c-0.2,0-0.4,0.2-0.7,0.8c0,0.7,0.2,1,0.4,1
			C32.3,36.4,32.6,35.7,32.6,35 M46.8,55.1c0.9,0.1,1.1,0.4,1.1,0.7c0,0.4-0.4,0.6-0.8,0.6c-0.3,0-0.6-0.1-0.9-0.1
			c-0.4,0-0.9,0.1-1.2,0.5c0.3,0,0.6,0.2,0.6,0.6c0,1.1-3.1,0.2-3.1,3.1c0,1.5,1.6,3.2,4,3.2c1.3,0,2.1-0.4,2.1-0.9
			c0-0.4-0.7-0.1-0.7-0.4c0-0.1,0.2-0.4,0.2-0.6c0-0.1-0.1-0.3-0.2-0.3c-0.4,0-1,0.6-2.4,0.6c-1.1,0-2.1-0.6-2.1-1.4
			c0-0.2,0.1-0.3,0.2-0.3c0.1,0,0.3,0.1,0.4,0.1c0.1,0,0.1-0.1,0.1-0.3s0-0.8,0.4-0.8c0.4,0,1.1,1.4,3.8,1.4c0.9,0,2.6-0.2,3.3-0.8
			c0,2.2-1.7,5-5.2,5c-3.7,0-5.6-2.9-5.6-5.6c0-3,2.4-5.7,5.8-5.7c0.9,0,1.6,0.3,1.6,0.7C48.2,54.8,46.9,54.5,46.8,55.1 M52.8,56.1
			c0.1,0.2,0.2,0.4,0.2,0.6c0,0.5-0.4,1.1-0.4,1.6c0,0.6,0.5,1.2,1.2,1.2c0.8,0,1.4-0.6,1.4-1.4C55.2,57.1,54.3,56.2,52.8,56.1
			 M46.3,57.4c0.2,0.2,0.3,0.4,0.3,0.6c0,0.3-0.1,0.6-0.1,0.9c0,0.5,0.4,0.9,0.9,0.9c0.6,0,0.9-0.4,0.9-0.9
			C48.2,58.1,47.4,57.4,46.3,57.4 M48.9,54c2.1,0.4,3.2,1.9,3.2,3.4c0,1-0.6,1.9-1.7,1.9c-1,0-1.7-0.7-1.7-1.8
			c0-0.8,0.6-1.7,0.6-2.5C49.3,54.7,49.2,54.4,48.9,54 M49.9,56.6c0,0.3,0.2,0.5,0.5,0.5c0.3,0,0.5-0.3,0.5-0.6c0-0.4-0.4-1-0.7-1
			c-0.2,0-0.1,0.2-0.1,0.5C50,56.3,49.9,56.5,49.9,56.6 M46.2,43.9c0.2,1.7,2.4,0.8,2.4,2.8c0,0.3-0.1,0.7-0.1,1.1
			c0,0.4,0,0.8,0.4,0.8c0.3,0,0.4-0.2,0.4-0.5c0-0.3-0.1-0.7-0.1-0.9c0-0.7,0.5-0.8,0.8-0.8c0.7,0,1.3,0.8,2.4,0.8
			c-0.3,1.3-2.8,0.9-2.8,2.3c0,0.7,0.7,0.8,1.1,0.8c0.4,0,0.5-0.1,0.5-0.4c0-0.2,0-0.4,0-0.5c0-0.1,0.1-0.2,0.2-0.2
			c0.4,0,2.5,1.6,2.5,2.1c0,0.5-2.2,0.9-2.9,0.9c-0.2,0-0.2-0.1-0.2-0.2c0-0.1,0.3-0.6,0.3-0.8c0-0.2-0.3-0.3-1.1-0.3
			c-0.4,0-0.6,0-0.6,0.3c0,0.5,0.9,1.2,0.9,1.7c0,0.4-0.2,0.6-0.9,0.6c-0.5,0-1.3-0.4-1.3-1.1c0-0.5,0.6-1.1,0.6-1.4
			c0-0.1-0.1-0.3-0.3-0.3c-0.7,0-0.9,1.9-3.5,2.1c0.4-0.4,0.8-0.8,0.8-1.6c0-0.4-0.1-0.7-0.1-1.2c0-0.6,0.3-0.9,0.7-0.9
			c0.7,0,1.1,1,1.5,1c0.3,0,0.5-0.2,0.5-0.6c0-1.5-2.9-1.3-2.9-3.4C45.5,45.6,45.7,44.9,46.2,43.9 M55.5,49.7c0,0.5,0.2,1.1,0.6,1.1
			c0.4,0,0.8-0.6,0.8-1.3c0-0.8-0.1-1.4-0.1-1.7c0-0.1,0.1-0.2,0.1-0.2c0.3,0,0.6,0.8,0.9,0.8c0.3,0,0.9-0.6,1.1-0.6l0.1,0.1
			c0,0.3-0.5,0.9-0.5,1.2c0,0.2,1.1,0.3,1.1,0.5c0,0.3-1.2,0.3-1.8,0.5c-0.6,0.2-0.9,0.5-0.9,0.9c0,0.4,0.4,0.5,0.9,0.5
			c1.3,0,2.2-0.7,2.5-0.7l0.1,0.1c0,0.2-0.7,0.8-0.7,1.1c0,0.3,1.2,0.7,1.2,0.9c0,0.1-0.1,0.1-0.2,0.1c-0.2,0-0.5-0.1-0.8-0.1
			c-0.2,0-0.3,0-0.4,0.1c-0.1,0.2,0,1.2-0.2,1.2c-0.3,0-0.9-2.3-2.4-2.3c-0.2,0-0.4,0.2-0.4,0.5c0,0.8,0.8,1.7,1.5,2.1
			c0.3,0.2,0.9,0.4,0.9,0.5c0,0.2-1.2,0-1.2,0.4c0,0.3,0.2,0.9,0.2,1.2c0,0.1,0,0.2-0.1,0.2c-0.2,0-0.8-1.1-1.1-1.1
			c-0.2,0-0.7,0.6-1,0.6l-0.1-0.1c0-0.5,0.7-1.5,0.7-2.5c0-0.5-0.1-1.5-0.6-1.5c-0.5,0-1,0.7-1.2,1.5c-0.1,0.4,0,2.1-0.4,2.1
			c-0.3,0-0.2-1.1-0.6-1.1c-0.3,0-0.9,0.5-1.1,0.5l-0.1-0.1c0-0.2,0.6-1,0.6-1.2c0-0.3-1.3-0.3-1.3-0.6c0-0.1,0.5-0.2,1-0.3
			c1-0.2,2.5-0.9,2.5-1.9c0-1.1-1.1-1.6-1.8-2.1c-0.4-0.2-0.8-0.4-0.8-0.6c0-0.2,0.5-0.2,0.7-0.2c0.3,0,0.6,0,0.6-0.3
			c0-0.2,0-0.5,0-0.8c0-0.2,0-0.4,0.1-0.4c0.3,0,0.7,1,0.9,1c0.3,0,0.7-0.8,1-0.8c0.1,0,0.1,0.1,0.1,0.2
			C55.9,48.1,55.5,48.9,55.5,49.7 M54.9,66.1c-0.5,0.4-1.7,1.3-3.7,1.3c-1.1,0-1.5-0.3-1.7-0.3c-0.2,0-0.4,0.2-0.6,0.5
			c-0.5,0.5-1.1,1.6-1.1,2.7c0,0.8,0.6,1.6,1.7,1.6c3.7,0,6.4-2.3,6.4-4.1C55.9,66.5,55.3,66.1,54.9,66.1 M53.8,65.9
			c0.2-0.1,0.2-0.4,0.2-0.6v-0.5c0-0.6-0.9-0.9-2-0.9c-1.4,0-2.2,0.6-2.2,0.9v0.9c0,0.4,0.9,0.7,1.9,0.7
			C52.6,66.5,53.3,66.3,53.8,65.9 M53.7,67.8c0.1,0,0.2,0.1,0.2,0.4c0,0.4-0.2,1-0.9,1.4c-0.5,0.3-1.2,0.6-2.1,0.6
			c0.2-0.5,0.3-1,0.3-1.4c0-0.2,0-0.3,0-0.4h0.3C52.9,68.4,53.6,67.8,53.7,67.8 M53.2,45.3c0-0.4,0.4-0.7,0.7-0.7
			c0.4,0,0.8,0.3,0.8,0.7c0,0.5-0.3,0.8-0.8,0.8C53.5,46.1,53.2,45.8,53.2,45.3 M18.4,33.9c0,0-0.6,0.4-1.3,0.4
			c-0.8,0-1.5-0.6-1.5-1.5c0-0.6,0.3-1.2,1-1.5c0,0.1,0,0.2,0,0.3C16.6,32.8,17.2,33.6,18.4,33.9 M22.5,37.7
			c-0.4,0.5-0.9,1.4-0.9,2.3c0,1.1,0.6,1.9,1.6,1.9c1,0,1.4-0.8,1.4-1.7C24.7,38.9,23.5,38,22.5,37.7 M20.5,34.5c-0.1,0-0.3,0-0.4,0
			c-0.7,0-1.5,0.1-2.3,0.6C16,36.3,16.3,38,16,38.5c0,0.1-0.1,0.1-0.1,0.2c0,0.2,0.2,0.4,0.4,0.4c0.2,0,0.3,0,0.3,0
			c0.5,0,1,0.3,1.8,0.3c0.5,0,1-0.1,1.6-0.5c1.4-0.7,2-2.4,2-2.7c0-0.4-0.3-0.3-0.5-0.7c-0.3-0.4-0.1-0.6-0.3-0.8
			C21.1,34.6,20.8,34.6,20.5,34.5 M21.2,36.6c0,0.3-0.2,0.6-0.5,0.6c-0.7,0-1.2-1-1.2-1.6c0-0.4,0.2-0.4,0.5-0.4
			c0.1,0,0.2,0,0.3,0.1c0.2,0.1,0.2,0.5,0.4,0.8C20.8,36.2,21.2,36.5,21.2,36.6 M18.8,38.4c-0.6,0-1.3-0.8-1.3-1.5
			c0-0.4,0.3-0.9,0.5-0.9c0.1,0,0.1,0.1,0.1,0.2c0.1,1,0.7,1.5,1.3,1.8l0.1,0.1C19.6,38.2,19.2,38.4,18.8,38.4 M20.5,33.5
			c0.1-0.3,0.2-0.7,0.2-1.1c0-0.9-0.4-2.4-1.8-2.4c-0.8,0-1.3,0.6-1.3,1.3C17.6,32.9,19.2,33.5,20.5,33.5 M62.6,49.5
			c0.3-1,0.7-1.7,1.3-2.7c-0.6-0.3-2.3-1-2.3-2.2c0-1.4,1.7-2.4,2-2.4c0.2,0,0.2,0.1,0.2,0.4c0,0.7-0.3,1.8-0.3,2.4
			c0,0.5,0.4,1.1,0.7,1.1c0.3,0,1.3-1.2,1.3-2.3c0-2.1-1.8-2.7-2.4-2.7c-0.5,0-1.5,0.9-3.7,0.9c-4.2,0-5.2-4.2-5.2-6
			c0-0.1,0-0.1,0-0.1c0.1,0,0.5,0.5,1.8,0.5c0.7,0,1.3-0.2,2.3-0.2c2.3,0,3.4,1.6,4.8,3.7c0.9,0.5,3,1.4,3,3.9
			c0,2.2-2.3,3.4-2.9,5.8c0.9-0.1,1.4-1.7,2.3-1.7c0.5,0,0.7,0.4,0.7,1c0,0.9-0.5,2.2-1.4,3c0-0.1,0-0.2,0-0.3
			c0-0.5-0.2-1.3-0.8-1.3c-1,0-1.3,1.1-1.8,1.9c-0.6-2-1.3-3.8-2.7-4.9c-1.4-1.1-3.8-0.5-3.8-2.5c0-0.5,0.4-1.3,0.4-2
			c0-0.2,0-0.4-0.2-0.6c1.9,0.7,1.2,2,2.4,3.2c0.7,0.8,2.7,1.6,3.9,5c0-0.1,0-0.4,0-0.5c0-2.9-3.8-5.7-4.2-6.9
			c2.2,0.3,2.6,0.8,3.7,3.7C61.9,47.2,62.6,48.7,62.6,49.5 M35.8,26.9c0-1.2-3.2-3.3-3.2-4.2l0-0.1c0.2-0.6,2.9-1.1,2.9-1.6
			c0-0.3-0.5-0.3-0.7-0.3c-1.8,0-4.5,0.7-4.5,1.3c0,0.7,2.4,2.3,2.4,3.1c0,0.2-0.1,0.3-0.4,0.3c-0.7,0-2.1-0.8-2.8-0.8
			c-0.3,0-0.4,0.2-0.4,0.5c0,0.9,1.1,2.7,1.1,3.2c0,0.1,0,0.1-0.1,0.1c-0.3,0-2-2-2.6-2c-0.2,0-0.2,0.3-0.2,0.7V28
			c0,0.4,0,0.7-0.2,0.7c-0.5,0-0.7-1.4-1.2-1.4c-0.5,0-0.6,2.5-1.1,2.5c-0.6,0-0.1-2.8-0.6-2.8c-0.6,0-1.3,1.9-1.7,1.9
			c-0.2,0-0.2-0.2-0.2-0.3c0-0.6,0.3-1.5,0.3-2c0-0.3-0.1-0.4-0.3-0.4c-0.6,0-1.9,1-2.4,1c-0.1,0-0.2,0-0.2-0.1c0-0.5,2.1-2,2.1-2.6
			c0-0.6-2.9-0.2-2.9-1c0-0.6,2.1-1.3,2.1-1.9c0-0.6-2.5-0.8-3.4-0.8c-1.2,0-1.8,0.1-1.8,0.5c0,0.5,2.6,0.7,2.6,1.1
			c0,0.4-2.7,1.6-2.7,2.3c0,0.6,3.8,0,3.8,0.6c0,0.7-3.3,3.5-3.3,4.5c0,0.2,0.2,0.3,0.4,0.3c1,0,3.7-1.9,4.4-1.9
			c0.3,0,0.3,0.3,0.3,0.6c0,0.5-0.2,1.3-0.2,1.9c0,0.5,0.1,0.8,0.5,0.8c0.7,0,1.4-1.2,1.9-1.2c0.6,0,0.3,3.6,1.2,3.6
			c0.8,0,1.1-3.9,1.6-3.9c0.5,0,0.9,1.1,1.4,1.1c0.6,0,0.3-2,0.9-2c0.7,0,2.6,2.4,3.5,2.4c0.3,0,0.4-0.2,0.4-0.5
			c0-1-1.4-3.4-1.4-4.1c0-0.2,0.1-0.3,0.3-0.3c0.8,0,3,1.1,4.1,1.1C35.6,27.4,35.8,27.2,35.8,26.9 M33.8,23c0,0.4,1.2,1.1,1.8,1.1
			c0.3,0,0.4-0.5,0.4-0.9c0-0.6-0.3-0.6-0.8-0.6C34.6,22.6,33.8,22.8,33.8,23 M59.2,58.4c-0.3,0-0.6,0.2-0.6,0.7
			c0,0.6,0.5,1,0.7,1.1c0.1,0.1,0.4,0.2,0.6,0.2c0.6,0,1-0.2,1-0.6C60.9,59.1,60.1,58.4,59.2,58.4 M57.1,59.6c-0.4,0-2.7,3-4.2,3
			c-0.4,0-0.6-0.7-0.6-1.2c0-0.3,0.2-0.5,0.8-0.6c3.4-0.8,2.6-3.3,5.5-3.3c1.6,0,3.4,1.1,3.4,3.5c0,2.6-3.7,5.8-4.2,5.8
			c-0.4,0-0.9-0.6-0.9-1.1c0-0.1,0.1-0.3,0.5-0.5c1.9-0.7,3-2.5,3-3.3c0-0.2-0.1-0.4-0.4-0.4c-0.3,0-1.8,3.2-3.3,3.2
			c-1.1,0-2.2-1-2.2-1.5c0-0.8,3.2-2.2,3.2-3.3C57.4,59.6,57.3,59.6,57.1,59.6 M29.2,21.1c0-0.1-0.6-0.2-1.4-0.2
			c-1.3,0-1.1,1.1-2.1,1.1c-1,0-0.8-1.1-2.1-1.1c-0.8,0-1.5,0.1-1.5,0.3c0,0.2,0.9,0.1,0.9,0.8c0,0.7-2,0.9-2,1.3
			c0,0.1,0.2,0.2,0.4,0.2c0.4,0,1.1-0.2,1.6-0.2c0.3,0,0.5,0.1,0.5,0.3c0,0.5-1.1,1.4-1.1,1.8c0,0.1,0.1,0.2,0.2,0.2
			c0.4,0,1.1-1,1.7-1c1,0,0.4,2.2,0.9,2.2c0.6,0,0.3-2.2,1.2-2.2c0.7,0,1.2,1.5,1.7,1.5c0.1,0,0.2-0.1,0.2-0.2
			c0-0.4-0.6-1.3-0.6-1.8c0-0.3,0.2-0.5,0.5-0.5c0.5,0,1.1,0.3,1.4,0.3c0.1,0,0.2,0,0.2-0.2c0-0.5-1.7-1-1.7-1.6
			C28.2,21.3,29.2,21.3,29.2,21.1 M34.1,32.7c1.3,0,1.9,1.1,1.9,2.4c0,0.5-0.2,1.4-0.4,1.4c-0.3,0-0.2-0.5-0.3-0.9
			c0-0.5-0.1-0.6-0.3-0.6c-0.3,0-0.5,0.8-0.5,1.5c0,0.5,0.1,1,0.4,1c0.2,0,0.4-0.1,0.5-0.2c-0.1,0.9-0.7,1.7-1.7,1.7
			c-1.7,0-2.4-2-2.6-3.2c-1,1.1-2,1.9-3.7,1.9c-1.6,0-2.3-1.2-2.3-2.3c0-0.3,0.1-1.2,0.5-1.2c0.5,0,0.1,1.6,1,1.6
			c0.2,0,0.7-0.2,0.9-0.8c0.1-0.4,0.2-0.8,0.2-1.2c0-0.5-0.1-0.9-0.5-0.9c-0.3,0-0.7,0.3-0.9,0.4c0.5-1.4,1.6-2.1,2.9-2.1
			c1.5,0,2.4,1.4,2.4,2.9c0,0.2,0,0.4-0.1,0.7C32.2,33.6,33.1,32.7,34.1,32.7 M45.2,72.1c0.9,0,0.9-0.1,1.2-0.1
			c0.3,0,0.3,0.2,0.3,0.3c0,0.4-1,1-2.7,1c-1,0-1.6-0.5-1.8-1.1c-1,0.6-2.5,1.2-3.9,1.2c-4,0-5-1.7-6.3-2.3c-1-0.4-2.4,0.4-4.5-1.9
			c0.3,0.1,0.6,0.1,0.9,0.1c1.8,0,2.8-0.9,2.8-2.3c0-0.2,0-0.4,0-0.5c0.5,0.2,1.8,1.2,2.1,2.8c0,0.2,0.8,0.4,1.4,0.4
			c0.7,0,1.6-0.3,1.7-1.4c2.4-0.2,3.9-1.6,4.3-3.3c0.8,0.3,1.8,1,2,1.4c0.3-0.1,0.7-0.2,1.2-0.2c0.6,0,1.3,0.1,2.2,0.4
			c0-0.3,0.1-0.6,0.5-0.6c0.6,0,0.4,0.6,0.6,1c0.1,0.2,0.6,0.3,0.6,0.7c0,0.4-0.3,0.5-0.5,0.5c-0.1,0-0.2,0-0.2,0
			c-0.4,0.1-0.4,3-2.1,3c-1.2,0-2.3-1-2.8-2.3c-0.1-0.4-0.4-0.6-0.7-0.6c-0.3,0-0.5,0.1-0.9,0.5c-1.1,1.2-2.8,2.2-5,2.2
			c-0.7,0-1.2-0.1-1.3-0.1c-0.1,0-0.1,0-0.1,0c0,0.1,0.7,0.7,2.1,0.7c3.4,0,4.3-1.9,4.8-1.9c0.1,0,0.3,0,0.5,0.3
			C42.4,71.6,44.1,72.1,45.2,72.1L45.2,72.1z M15.4,41.3c0,1.5,0.4,2.2,1.3,2.2c0.6,0,1.5-0.4,2.5-1.3c-0.8,0.2-1.4,0.3-1.9,0.3
			C16.6,42.5,16,42.2,15.4,41.3 M16.1,39.6c0,0.1,0,0.2,0,0.3c0,0.9,0.5,1.4,1.1,1.4c0.5,0,1.1-0.3,1.6-0.9c-0.2,0-0.5,0.1-0.7,0.1
			C17.4,40.4,16.6,40.2,16.1,39.6 M20.9,39.3c-0.4,0.1-1.4,0.7-1.4,1.6c0,0.7,0.5,1.2,1.2,1.2c0.4,0,0.6-0.1,0.8-0.2
			c-0.5-0.5-0.7-1.1-0.7-1.7C20.8,39.8,20.8,39.6,20.9,39.3 M22.9,60.6c-0.6,0.2-1.7,1.2-1.7,2.8c0,1.9,2.1,4.9,5.4,4.9
			c2.9,0,3.6-2,3.6-3.3c0-3-1.8-5-4.2-5c-1.3,0-2.4,0.9-2.4,2.3c0,1.3,1,3.2,3.3,3.2c1.1,0,1.7-0.8,1.7-1.7c0-0.9-0.8-2.1-2-2.1
			c-0.4,0-0.6,0.2-0.6,0.6c0,0.5,0.6,0.9,1.4,0.9c0.2,0,0.4,0,0.4-0.1c0,0.1,0.1,0.2,0.1,0.2c0,0.5-0.4,0.7-1.1,0.7
			c-1,0-2-0.7-2-1.9c0-0.7,0.6-1.2,1.5-1.2c1.7,0,2.8,1.5,2.8,3.1c0,1.4-0.8,2.2-2.3,2.2C23.7,66.3,22.2,63.5,22.9,60.6 M52.1,31.2
			c0.3-0.2,1.3,0.1,2.8-0.6c0.2-0.1,0.4-0.1,0.5-0.1c0.7,0,0.5,0.8,1.1,0.8c0.5,0,1.1-0.4,1.5-0.4c0.6,0,1.4,1.8,1.4,2.7
			c0,1-1.5,1.6-3.3,1.6c-2.6,0-4.2-2.3-4.2-3.7C52,31.3,52.1,31.2,52.1,31.2 M56.4,33.7c0.9,0,1.5-0.4,1.5-0.6
			c0-0.1-0.1-0.1-0.4-0.1c-0.3,0-0.8,0-1.7-0.2c-0.8-0.1-1.5-0.5-1.7-0.5c-0.1,0-0.1,0-0.1,0.1C54,32.9,54.9,33.7,56.4,33.7
			 M22.5,53.2c0.8,0,1.5-0.6,1.5-2v-2c0-0.8,0.1-1.6,0.6-2.2c-0.1,0.3-0.1,0.5-0.1,0.8c0,1.7,0.9,2.8,0.9,4.5c0,0.6-0.2,0.9-0.6,0.9
			c-0.5,0-0.4-0.4-0.5-0.4c-0.1,0-0.2,0.3-0.2,0.5c0,0.4,0.3,1.1,1.1,1.1c0.7,0,1.3-0.6,1.3-1.4c0-1.8-1.4-3.7-1.4-5.6
			c0-0.8,0.2-1.4,0.4-1.8c0,3.9,3.3,6.7,3.3,8.4c0,0.4-0.3,0.7-0.7,0.7c-0.5,0-0.7-0.4-0.7-0.6c0-0.1,0-0.2-0.1-0.2
			c-0.1,0-0.5,0.4-0.5,0.9c0,0.6,0.5,1.4,1.5,1.4c1.1,0,1.7-0.9,1.7-1.8c0-2.1-4-5.2-4-8.5c0-0.6,0.1-1.5,0.5-2.2
			c-2.6,1.7-3.4,3.9-3.4,5.8c0,1.7-0.1,2.5-0.9,2.5c-0.4,0-0.6-0.4-0.7-0.4c-0.1,0-0.2,0.4-0.2,0.4C21.4,52.8,21.9,53.2,22.5,53.2
			 M21.6,34c0,0.4,0.4,0.8,0.8,0.8c0.4,0,0.8-0.3,0.8-0.8c0-0.4-0.3-0.8-0.8-0.8C22,33.2,21.6,33.5,21.6,34 M22.6,35.7
			c0,0.4,0.4,0.8,0.8,0.8c0.4,0,0.8-0.4,0.8-0.8c0-0.4-0.4-0.8-0.8-0.8C23,34.9,22.6,35.3,22.6,35.7 M43.7,68.2
			c0,0.4,0.4,0.8,0.8,0.8c0.4,0,0.8-0.3,0.8-0.8c0-0.4-0.4-0.8-0.8-0.8C44.1,67.4,43.7,67.7,43.7,68.2 M46.3,39.3
			c0,0.4,0.4,0.8,0.8,0.8c0.4,0,0.8-0.4,0.8-0.8c0-0.4-0.3-0.8-0.8-0.8C46.7,38.5,46.3,38.9,46.3,39.3 M45.6,42.1
			c0,0.6,0.5,1.1,1.1,1.1c0.6,0,1.1-0.5,1.1-1.1c0-0.6-0.5-1.1-1.1-1.1C46.2,40.9,45.6,41.5,45.6,42.1 M48.1,40.8
			c0,0.7,0.5,1.2,1.2,1.2c0.7,0,1.2-0.5,1.2-1.2c0-0.7-0.5-1.2-1.2-1.2C48.6,39.6,48.1,40.1,48.1,40.8 M48.2,38.3
			c0,0.4,0.3,0.7,0.7,0.7c0.4,0,0.7-0.3,0.7-0.7c0-0.4-0.3-0.7-0.7-0.7C48.5,37.5,48.2,37.8,48.2,38.3 M51.8,36.4
			c0,0.4,0.3,0.7,0.7,0.7c0.4,0,0.7-0.3,0.7-0.7c0-0.4-0.3-0.7-0.7-0.7C52.1,35.6,51.8,36,51.8,36.4 M50.3,38.8
			c0,0.7,0.6,1.3,1.3,1.3c0.7,0,1.3-0.6,1.3-1.3c0-0.7-0.6-1.3-1.3-1.3C50.9,37.5,50.3,38.1,50.3,38.8 M48.3,43.4
			c0,0.4,0.4,0.8,0.8,0.8c0.4,0,0.8-0.3,0.8-0.8c0-0.4-0.3-0.8-0.8-0.8C48.6,42.6,48.3,42.9,48.3,43.4 M50.8,41.8
			c0,0.4,0.4,0.8,0.8,0.8c0.4,0,0.8-0.4,0.8-0.8c0-0.4-0.4-0.8-0.8-0.8C51.2,41,50.8,41.4,50.8,41.8 M50.1,44.6
			c0,0.7,0.6,1.4,1.3,1.4c0.7,0,1.4-0.6,1.4-1.4c0-0.7-0.6-1.3-1.4-1.3C50.7,43.2,50.1,43.8,50.1,44.6 M52.9,42.9
			c0,0.5,0.4,0.9,0.9,0.9c0.5,0,0.9-0.4,0.9-0.9c0-0.5-0.4-0.9-0.9-0.9C53.3,42,52.9,42.4,52.9,42.9 M52.9,40.4
			c0,0.4,0.4,0.8,0.8,0.8c0.5,0,0.8-0.4,0.8-0.8c0-0.5-0.4-0.8-0.8-0.8C53.2,39.6,52.9,40,52.9,40.4 M63.8,21.9
			c0,0.3,0.2,0.5,0.5,0.5c0.3,0,0.5-0.2,0.5-0.5c0-0.3-0.2-0.5-0.5-0.5C64,21.4,63.8,21.6,63.8,21.9 M20.2,57.8
			c0.1,0.7,0.7,1.2,1.4,1.1c0.3,0,0.5-0.1,0.6-0.2c0.2,0.6,0.6,1,1.4,0.9c0.7-0.1,1.2-0.7,1.2-1.4c0-0.2-0.1-0.3-0.1-0.4l0.1,0
			c0.7-0.1,1.2-0.7,1.2-1.4c-0.1-0.7-0.7-1.2-1.4-1.2c-0.3,0.1-0.5,0.1-0.6,0.3c-0.2-0.6-0.7-1.1-1.4-1c-0.7,0-1.2,0.7-1.1,1.4
			c0,0.1,0,0.3,0.1,0.4l-0.1,0C20.6,56.4,20.1,57,20.2,57.8 M22.3,57.2c0-0.4,0.3-0.8,0.7-0.8c0.4-0.1,0.8,0.3,0.8,0.7
			c0,0.4-0.3,0.8-0.7,0.8C22.8,57.9,22.4,57.6,22.3,57.2 M47.5,28.2c0.3,0,0.4,0.8,0.4,1.2c0,0.2,0.1,0.3,0.2,0.3
			c0.2,0,0.6-0.9,0.9-0.9c0.4,0,1.4,1,3,1c2.4,0,4.6-1.7,4.6-4.6c0-2.8-2-4.5-4.8-4.5c-1.3,0-2.3,0.6-2.8,0.6c-0.3,0-0.8-0.8-1-0.8
			c-0.1,0-0.2,0.2-0.2,0.5c0,0.2,0,0.9-0.2,0.9c-0.5,0-2.3-1.4-2.3-0.9c0,0.5,1.2,1.8,1.2,2.2c0,0.4-1.2,0.7-1.2,0.9
			c0,0.4,1.3,0.5,1.3,1.1c0,0.5-1.3,1-1.3,1.4c0,0.3,1.3,0.1,1.3,0.5c0,0.4-1,1.8-1,2.2c0,0.1,0,0.1,0.1,0.1
			C46.1,29.5,47.2,28.2,47.5,28.2 M17.5,47.5c0.7,0,0.5-4.1,1.6-4.1c0.3,0,0.3,0.3,0.3,0.6c0,0.9-0.5,2.3-0.5,3
			c0,0.4,0.1,0.5,0.3,0.5c0.5,0,1.3-4.5,2.1-4.5c0.3,0,0.4,0.3,0.4,0.5c0,0.9-1.2,3.6-1.2,4.4c0,0.1,0,0.2,0.1,0.2
			c0.5,0,1.5-2.1,1.8-3.2c0.2-0.5,0.4-0.8,0.6-0.8c0.2,0,0.4,0.2,0.4,0.7c0,1.1-1,3.5-1.8,5.2c-0.7,1.3-1.7,3.2-1.7,4.2
			c0,0.5,0.1,1.1,0.9,1.7c-1.3-0.1-1.8-0.2-2.2-1.2c-2.1,4.2,3.9,3.8,1.8,7.5C20,61.5,17,60.8,17,57c0-3.3,2.9-5.3,2.9-6.7
			c0-0.3-0.1-0.5-0.4-0.7c-0.6-0.5-0.7-1-1.2-1c-0.4,0-0.8,0.9-0.4,1.6c0.2,0.3,0.3,0.4,0.3,0.6c0,0.5-0.9,2-1.5,2
			c-0.6,0-1.1-1.5-1.1-3.9c0-2.2,0.5-4.3,1.1-4.3c0.2,0,0.2,0.1,0.2,0.3c0,0.3-0.1,0.8-0.1,1.6C17.1,47.4,17.3,47.5,17.5,47.5
			 M61.3,32.1c-0.3,0-0.7,0-0.9-0.4c-0.2-0.4-0.1-0.9-0.4-1.2c0.3,0.1,0.7,0.1,1,0.1c0.9,0,1.7-0.6,2.4-0.6c0.4,0,0.6,0.3,0.6,0.5
			C63.8,31.4,62.1,32.1,61.3,32.1 M61.7,34.3c2,0,3.9-1.6,3.9-3.1c0-0.7-0.3-1.2-1.1-1.3c0.1,0.2,0.2,0.3,0.2,0.6
			c0,1.1-1.6,2.3-3.4,2.3c-0.6,0-0.8,0.4-0.8,0.7C60.4,34.1,60.9,34.3,61.7,34.3 M61.5,35.2c0.3,1.9,3.1,4.4,3.8,4.3
			c0.5,0,0.7-2.4,0.7-4.3c0-1.1,0.1-1.9-0.5-2.1C64.7,34.9,62.3,35.2,61.5,35.2"/>
		<path fill="#FFFFFF" d="M9.8,86.4c0-1.5,0-3,0.7-5.2c0.3-1.1,0.6-1.5,1.7-1.8c0.8-0.1,0.7,0.7,0.6,1.7c-0.4,2.2-0.6,3.3-0.4,5.8
			c0.1,2.7,1.4,3.7,2.7,3.7c2,0,2.9-1.6,3.2-4c0.3-1.9,0.1-2.8-0.1-3.4c-0.1-0.3-0.4-1.1-0.5-1.6c-0.1-1.4,0.5-2.1,1.1-2.3
			c0.7-0.2,0.9,0.1,1.2,0.9c0.3,1.2,0.4,2.7,0.3,4.9c-0.1,3-1.7,6.7-5.4,6.6C11.4,91.7,9.9,89.6,9.8,86.4 M60.5,85.8
			c0.8,0,1,0.9,0.8,1.5c-0.2,0.6-0.8,1.2-1.9,1.4C59.2,88.1,59.1,85.8,60.5,85.8 M46.1,87c0-0.6-0.3-1.1-0.7-1.1
			c-0.3,0-1.1,0.4-1.1,1.6c0,0.9,0.3,1.4,0.5,1.6C45.8,88.7,46.1,87.8,46.1,87 M34.6,79.5c0-0.6-0.5-1-1.1-1c-0.7,0-1.4,0.7-1.3,1.7
			c0,0.6,0.4,1.1,1.1,1.1C34.1,81.3,34.7,80.4,34.6,79.5 M40.6,81.7c-0.1-1-0.3-1.5-0.9-1.5c-0.7,0-1.1,2.4-0.9,4.8
			c0.1,1.6,0.3,1.8,0.6,1.8C39.8,86.8,40.7,84,40.6,81.7 M63.1,86.5c0-0.9-0.8-2.2-2.1-2.2c-1.7,0-3.3,1.8-3.3,4.3
			c0,2.3,1.4,3,2.8,3c2.4,0,3.9-2,4.7-3.7c0.4,1.1,0.6,3.7,1.5,3.7c0.4,0,0.6-0.2,1.1-1.2c1.1-2.5,2.2-5.3,3.6-5.3
			c0.6,0,0.2,1,1.5,1c0.6,0,1.1-0.5,1.1-1.1c0-0.9-0.8-1.5-2-1.5c-3.5,0-4.2,5.2-4.8,5.2c-0.9,0-0.6-4.2-1.3-4.2c-0.6,0-0.9,0.7-1,1
			c-0.5,1.9-1.8,4.7-3.9,4.7c-0.5,0-1.3-0.2-1.3-0.7C59.8,89.1,63.1,89,63.1,86.5 M35.6,90c0.6,0,1.5-0.2,2.3-1.4
			c-0.4-0.9-0.7-2.9-0.8-3.6c-0.2-3.6,1.2-6.9,2.7-7c1.1-0.1,2,1,2.1,2.7c0.3,4.5-1.2,6.3-2,7.9c0.1,0.6,1.2,1.7,2.2,1.7
			c0.4,0,0.8-0.2,0.9-0.3c-0.1-0.3-0.2-0.6-0.2-1.1c0-2.6,1.7-4.8,3.1-4.8c1.1,0,1.8,1.5,1.8,2.5c0,1.2-1,2.1-2.5,3.1
			c0.3,0.3,0.7,0.4,1.1,0.4c2.1,0,3.2-2.5,4-4.9c0.2-0.4,0.4-1.1,0.9-1.1c0.9,0,1.3,5.8,2.7,5.8c0.6,0,1.1-1.3,1.1-2.3
			c0-0.7-0.3-0.8-0.3-1.9c0-1.2,0.6-2.2,1.5-2.2c0.5,0,0.7,0.5,0.7,1.1c0,2.4-1.7,6.8-4.2,6.8c-1.9,0-1.7-3.3-2.4-3.3
			c-0.7,0-1.8,3.3-5.4,3.3c-0.6,0-1.2-0.3-1.7-0.9c-0.9,0.6-1.6,0.9-2.5,0.9c-1.4,0-2-1.4-2.5-1.4c-0.7,0-1.4,1.4-3.6,1.4
			c-1.8,0-2.1-2.4-2.7-2.4c-0.6,0-1.4,2.4-2.3,2.4c-1.6,0-1.9-4.1-3.2-4.1c-1.1,0-4.5,4.2-5.4,4.1c-0.4,0-0.5-0.3-0.5-0.7
			c0.1-0.5,0.5-1.9,0.7-2.5c0.3-1.1,0.6-2.4,0.7-2.7c0.2-0.4,0.6-0.7,0.9-0.6c0.2,0,0.2,0.3,0.3,0.6c0.2,0.9,0.4,1.8,0.7,1.8
			c0.5,0,2.2-3.3,3.2-3.3c1.2,0,1.4,5.2,3,5.2c0.6,0,1-0.7,1.3-1.5c0-1.4,0.4-3.3,1.5-3.3c0.8,0,1.1,1.7,0.6,3.2
			C33.6,89.5,34.8,90,35.6,90"/>
	</g>
</g>
</svg>
